<svg version="1.1" id="_x32_"
  xmlns="http://www.w3.org/2000/svg" width="800" height="800" viewBox="0 0 512 512" xml:space="preserve">
  <style>.st0{fill:#000}</style>
  <path class="st0" d="M432.813 219.75a107.476 107.476 0 0 1-8.172 11.156c-1.781 2.125-1.484 5.313.641 7.094a4.906 4.906 0 0 0 3.234 1.188 5.014 5.014 0 0 0 3.859-1.813 112.445 112.445 0 0 0 7.344-9.781h.016l.016-.031h.016l.063-.094v-.031l.031-.031h.016l.031-.047.016-.047h.016l.016-.031.016-.031.016-.031H440l.031-.063.031-.031v-.031l.031-.031.031-.047V227l.031-.031.031-.031v-.031l.031-.031.016-.031.016-.016.016-.016.016-.031.063-.094.016-.031.016-.016.063-.109.031-.031.094-.156.766-1.172a5.05 5.05 0 0 0-4.25-7.75 5.065 5.065 0 0 0-4.267 2.327zM453.766 123.5c-.703-2.094-2.672-3.422-4.781-3.422-.531 0-1.078.078-1.609.266a5.027 5.027 0 0 0-3.172 6.375 107.475 107.475 0 0 1 3.563 13.375 5.056 5.056 0 0 0 4.938 4.063l.984-.094a5.071 5.071 0 0 0 3.969-5.938l-.125-.625v-.047l-.031-.109v-.031l-.016-.031v-.016l-.016-.109-.016-.031v-.016l-.016-.016v-.062l-.016-.063-.016-.031v-.093h-.016l-.016-.063v-.078l-.016-.016-.016-.031v-.093l-.016-.031-.016-.031v-.062l-.031-.063v-.094l-.016-.031-.016-.047v-.079l-.016-.031-.016-.031v-.031l-.016-.063-.016-.063v-.063l-.031-.094v-.062l-.016-.031-.031-.156h-.016v-.063l-.031-.125v-.047l-.047-.172-.047-.219a119.61 119.61 0 0 0-2.031-7.656l-.063-.25-.094-.313-.016-.031-.063-.203h-.016l-.031-.172-.031-.063-.047-.156-.047-.172v-.016l-.031-.031-.031-.125v-.063h-.016l-.031-.094-.016-.016v-.047l-.016-.063h-.016v-.063l-.031-.047v-.047l-.016-.031-.016-.031-.016-.063-.016-.031v-.031l-.016-.031-.007-.029v-.047l-.031-.047v-.063h-.016l-.016-.031v-.031l-.016-.031-.016-.031v-.047l-.031-.047v-.063h-.016l-.016-.031v-.062l-.016-.031-.016-.016v-.047l-.031-.031v-.031l-.016-.031v-.031l-.013-.032v-.031l-.031-.031v-.062h-.016l-.016-.031v-.031l-.015-.033-.016-.031v-.062l-.016-.016-.016-.016-.031-.125-.016-.031v-.016l-.016-.031v-.016l-.031-.063v-.062l-.014-.031zM454.063 170.125a5.03 5.03 0 0 0-5 4.422 111.644 111.644 0 0 1-2.531 13.609 5.04 5.04 0 0 0 3.625 6.125l1.25.156c2.25 0 4.313-1.531 4.891-3.797.25-1.016.5-2.047.734-3.063v-.047l.031-.125v-.016l.016-.047h.016v-.062l.016-.063.016-.031v-.124l.031-.031v-.062l.016-.031v-.031l.016-.031v-.016l.016-.063v-.016l.016-.031v-.062l.031-.125v-.063h.016l.016-.047.016-.109.016-.063.031-.172a118.3 118.3 0 0 0 1.719-10.359c.344-2.75-1.625-5.25-4.391-5.594l-.613-.031zM429.344 81.875l-.109-.125v-.016l-.109-.109v-.031l-.25-.25a132.231 132.231 0 0 0-2.5-2.656 5.065 5.065 0 0 0-3.609-1.516 5.1 5.1 0 0 0-3.516 1.422c-2 1.938-2.031 5.141-.094 7.125a113.566 113.566 0 0 1 9 10.531 5.02 5.02 0 0 0 4.031 2 5.004 5.004 0 0 0 3.031-1c2.219-1.656 2.656-4.828 1-7.063a118.932 118.932 0 0 0-5.313-6.563l-.094-.094-.031-.031v-.031l-.063-.063-.031-.031-.016-.031h-.016l-.031-.031-.031-.063-.031-.031h-.016l-.031-.047h-.015l-.031-.047-.031-.031v-.031l-.031-.031h-.016l-.032-.031-.016-.016-.031-.031v-.016l-.031-.031-.031-.031-.031-.031v-.016l-.031-.016-.016-.031-.016-.016-.031-.047h-.016l-.016-.031-.031-.016v-.016l-.031-.031-.031-.03h-.016l-.016-.031-.016-.031h-.016l-.063-.094h-.016l-.016-.031h-.031l-.063-.094v-.031h-.031l-.016-.016-.078-.078v-.031l-.031-.031-.094-.094-.028-.032-.094-.094-.031-.031zM190.484 410.594v-29.219h39.188V360.094h-39.188v-14.156l3.797-5.907h35.391V318.594h-21.594l17.953-27.938h-23.375l-24.375 37.875-24.328-37.875h-23.375l17.953 27.938h-21.593V340.031h35.39l3.797 5.938v14.125h-39.187V381.375h39.187v29.219z"/>
  <path class="st0" d="M178.313 189.25c-89.125 0-161.375 72.25-161.375 161.375S89.188 512 178.313 512s161.375-72.25 161.375-161.375-72.25-161.375-161.375-161.375zm0 297.531c-75.094 0-136.156-61.094-136.156-136.156 0-75.094 61.063-136.156 136.156-136.156 75.063 0 136.156 61.063 136.156 136.156 0 75.063-61.094 136.156-136.156 136.156z"/>
  <path class="st0" d="m163.844 243 .641-.063c4.547-.563 9.203-.844 13.828-.844 1.25 0 2.5 0 3.75.063h.188c2.688 0 4.938-2.156 5.031-4.875a5.058 5.058 0 0 0-4.875-5.219l-.5-.016h-.219l-.078-.016h-.047c-.75 0-1.5-.031-2.25-.031H176.251l-.031.031h-1.269l-.047.016H174.59l-.031.016H174l-.047.016h-.188l-.047.016h-.659l-.059.031H172.404l-.063.031H171.874l-.109.031h-.486l-.047.016h-.063l-.109.016h-.248l-.063.016-.172.016h-.235l-.063.016-.219.016h-.016c-2.297.156-4.578.375-6.828.656a5.063 5.063 0 0 0-4.375 5.656 5.07 5.07 0 0 0 5.003 4.405zM133.813 245.953a5.032 5.032 0 0 0-4.547-2.859c-.734 0-1.484.156-2.172.5a111.233 111.233 0 0 0-5.063 2.578l-.313.172-.063.031-.094.063h-.061v.031l-.094.031-.016.016-.047.016v.016l-.047.016-.047.031h-.016l-.031.031h-.016l-.031.031h-.016l-.047.031h-.016l-.031.016-.016.016-.029.014-.031.016h-.031l-.016.031h-.031l-.016.031h-.031l-.031.031h-.016l-.047.016v.016l-.031.016-.031.016-.031.016v.016h-.063l-.016.031h-.016l-.031.03h-.016l-.016.031-.063.016-.047.016h-.016l-.031.031-.109.063-.047.031-.109.063-.047.016-.156.078a122.643 122.643 0 0 0-5.984 3.656c-2.328 1.5-2.984 4.625-1.484 6.969a5.092 5.092 0 0 0 4.25 2.281c.938 0 1.875-.25 2.719-.813 3.875-2.5 7.938-4.766 12.078-6.75 2.516-1.219 3.578-4.219 2.36-6.735zM142.5 453.109a108.538 108.538 0 0 1-12.75-5.391 5.013 5.013 0 0 0-2.25-.531 5.042 5.042 0 0 0-4.5 2.781 5.046 5.046 0 0 0 2.25 6.781c1.531.766 3.094 1.5 4.688 2.219l.156.063.156.078.063.016.047.031h.016l.031.031h.063v.031h.063l.031.031h.031l.031.016v.016l.063.016.047.016h.016l.031.031h.016l.047.031.047.031h.047l.031.031H131l.063.031h.016l.016.016.031.016h.047l.016.031h.063l.016.031h.047l.031.031h.016l.047.031h.047l.016.016.031.016h.031l.063.031.031.031h.063l.094.063h.031l.031.031.109.031.016.016.031.016h.063l.063.031v.031h.062l.031.031.125.031v.016l.031.016.125.031v.031h.063l.094.063h.062v.016l.125.047h.031l.016.031.156.063h.016l.156.063.031.016h.016l.109.047.047.031h.016l.109.031h.016l.031.031.031.016.125.047.047.031h.016l.125.047.031.016.125.047.031.016h.016l.109.063h.063l.109.063h.047l.047.031h.016l.094.047h.031l.031.016.109.031.016.031h.062l.016.031h.016l.063.016.016.016H135l.031.016.031.016h.063l.031.031h.031l.031.031h.031l.047.031h.047l.031.031h.047l.016.016.047.016h.016l.031.016.031.016h.047l.047.031h.016l.031.031h.047l.031.031h.062l.031.031h.016l.031.016h.016l.047.016H136l.031.031h.062v.031h.063l.063.031.031.031h.062l.063.031.063.016.047.016h.016l.094.063h.063c.844.313 1.672.625 2.5.906a4.58 4.58 0 0 0 1.688.297 5.034 5.034 0 0 0 4.75-3.391c.904-2.629-.471-5.504-3.096-6.426zM92.594 417.219a5.07 5.07 0 0 0-3.969-1.938 4.952 4.952 0 0 0-3.094 1.063c-2.188 1.719-2.594 4.875-.906 7.063a160.206 160.206 0 0 0 2.828 3.484v.016l.078.093.031.031.094.094.016.031.016.031h.031v.031l.031.031.031.031v.016l.031.016v.031l.031.031h.031v.031l.031.016.016.031.016.016.031.031.032.064h.016l.016.031h.031l.031.047v.016l.031.031.031.031v.031l.078.063.016.016.031.047.063.094.047.03a122.52 122.52 0 0 0 6.281 6.75 5.057 5.057 0 0 0 3.547 1.469 5.04 5.04 0 0 0 3.594-1.5c1.953-1.969 1.938-5.156-.031-7.125a109.528 109.528 0 0 1-9.188-10.375zM65.344 343.844c2.531 0 4.734-1.938 5-4.531.469-4.594 1.25-9.188 2.297-13.656.641-2.688-1.047-5.406-3.75-6.063l-1.172-.125a5.064 5.064 0 0 0-4.906 3.875 123.31 123.31 0 0 0-2.5 14.922 5.061 5.061 0 0 0 4.5 5.547l.531.031zM93.781 282.531c1.75-2.156 1.406-5.344-.766-7.094a5.05 5.05 0 0 0-3.172-1.125 5.025 5.025 0 0 0-3.906 1.875 139.057 139.057 0 0 0-2.422 3.094l-.078.125-.031.031-.094.125-.016.031-.109.125-.094.125v.031l-.124.126-.203.281a120.763 120.763 0 0 0-3.828 5.531h-.016l-.094.156h-.016V286l-.063.094-.016.031h-.016l-.016.031-.047.063-.031.063-.016.031h-.016l-.031.063-.031.031v.031l-.016.031H78.5l-.016.031-.016.031-.031.031v.031h-.016l-.016.031-.016.031-.016.031-.016.016-.016.016-.016.031-.016.031h-.016l-.031.063-.016.031-.016.031-.016.031h-.016l-.063.094v.016a46.9 46.9 0 0 0-.953 1.484c-1.453 2.375-.719 5.5 1.656 6.969.828.5 1.75.75 2.656.75a5.04 5.04 0 0 0 4.281-2.406c2.413-3.937 5.1-7.718 8.006-11.312zM72.219 373.75a5.018 5.018 0 0 0-4.906-3.984l-1.078.109c-2.719.594-4.453 3.281-3.859 6 1.063 4.969 2.469 9.813 4.156 14.563.719 2.063 2.672 3.328 4.75 3.328a5.4 5.4 0 0 0 1.688-.297 5.051 5.051 0 0 0 3.063-6.438c-1.564-4.312-2.83-8.797-3.814-13.281zM238.297 442.031c-.922 0-1.828.25-2.672.766-3.906 2.422-8 4.641-12.172 6.547-2.531 1.156-3.641 4.156-2.484 6.688.844 1.844 2.688 2.938 4.594 2.938.688 0 1.406-.125 2.094-.438a122.053 122.053 0 0 0 8.188-4.156l.047-.031h.016l.094-.063.031-.031h.031l.094-.047.031-.016h.016l.047-.031.047-.031h.016l.031-.031h.016l.047-.031.047-.031h.016l.028-.033h.047l.016-.031.047-.031h.047l.031-.031.031-.016.031-.016.031-.031h.031l.031-.031h.031l.016-.031.078-.031.031-.031h.031v-.016l.125-.047.031-.031c1.281-.75 2.547-1.5 3.797-2.281a5.036 5.036 0 0 0 1.609-6.938 5.07 5.07 0 0 0-4.295-2.376zM276.781 407.469a5.092 5.092 0 0 0-2.719-.797 5.064 5.064 0 0 0-4.25 2.328 105.34 105.34 0 0 1-8.188 11.156 5.052 5.052 0 0 0 .656 7.109 4.963 4.963 0 0 0 3.219 1.172 5.048 5.048 0 0 0 3.875-1.813 112.445 112.445 0 0 0 7.344-9.781l.031-.031.063-.094h.016l.016-.047.016-.016.031-.031v-.016l.016-.047h.031v-.031l.031-.031.016-.031.031-.047.016-.016.031-.031.016-.063h.016l.031-.031v-.031l.031-.031v-.016l.016-.016.016-.031.031-.031v-.031h.031v-.031l.016-.031.078-.094.016-.031.016-.016.063-.109.016-.031h.016l.094-.156.75-1.172a5.035 5.035 0 0 0-1.535-6.953zM289.688 333.406l1-.094c2.719-.563 4.5-3.203 3.969-5.938l-.125-.625v-.031l-.016-.016-.016-.109v-.031l-.031-.031-.016-.125-.016-.031v-.093l-.031-.063v-.093l-.016-.016-.016-.016v-.11l-.016-.031v-.016l-.016-.031v-.062l-.016-.031-.016-.031v-.093l-.031-.063v-.063l-.016-.031v-.032l-.016-.063v-.063l-.031-.031v-.062l-.031-.063v-.063l-.016-.063-.013-.092v-.031l-.016-.031h-.016l-.031-.188v-.063l-.031-.094v-.031l-.016-.031v-.016l-.046-.171-.031-.219h-.016a109.842 109.842 0 0 0-2.016-7.656l-.063-.25-.109-.313h-.016l-.063-.234-.047-.172-.016-.063-.063-.156-.031-.172-.031-.047-.031-.125-.016-.047-.016-.016-.031-.094v-.063l-.031-.047v-.016l-.016-.063-.016-.031v-.031l-.016-.031h-.016v-.063l-.031-.063v-.062l-.031-.031v-.031l-.016-.031v-.016l-.016-.047-.016-.031-.016-.031v-.047l-.027-.045v-.062h-.016l-.016-.031v-.031l-.016-.047-.016-.016v-.062l-.016-.031-.016-.031v-.016l-.016-.047-.016-.031v-.031l-.016-.031-.012-.033v-.047l-.031-.047v-.062h-.031v-.062l-.016-.031-.016-.031v-.062l-.031-.016v-.016l-.031-.126-.016-.031-.016-.016v-.047l-.031-.063-.016-.063-.016-.016a5.023 5.023 0 0 0-4.781-3.438c-.531 0-1.063.078-1.594.266-2.656.875-4.063 3.75-3.188 6.391a107.236 107.236 0 0 1 3.563 13.359c.485 2.392 2.595 4.064 4.939 4.064zM190.813 458.469l-.563.031c-3.938.438-7.953.656-11.938.656h-1.906l-.078-.016c-2.734.016-4.984 2.203-5.047 4.953-.031 2.781 2.172 5.094 4.953 5.125a51.91 51.91 0 0 0 1.578.031H179.574l.016-.016h.629l.156-.016H181.502l.406-.031h.11a114.83 114.83 0 0 0 9.328-.656c2.781-.313 4.781-2.781 4.469-5.563a5.054 5.054 0 0 0-5.002-4.498zM291.656 359.406l-.594-.031a5.047 5.047 0 0 0-5.016 4.438 106.303 106.303 0 0 1-2.531 13.594c-.688 2.688.953 5.438 3.641 6.125l1.25.156a5.049 5.049 0 0 0 4.875-3.797c.266-1.016.5-2.031.75-3.063v-.047l.031-.125v-.047l.016-.016v-.031l.016-.031v-.063l.016-.031.016-.031v-.062l.016-.063.016-.016v-.078l.016-.031.016-.031v-.078l.016-.047h.016v-.063l.031-.125v-.062l.016-.047.016-.109.031-.063.031-.172a118.903 118.903 0 0 0 1.719-10.344c.34-2.765-1.628-5.265-4.41-5.609zM215.875 248.75c4.313 1.594 8.563 3.5 12.641 5.625a5.161 5.161 0 0 0 2.328.563c1.813 0 3.578-.969 4.469-2.688a5.022 5.022 0 0 0-2.125-6.813 112.365 112.365 0 0 0-9.406-4.406l-.156-.063-.063-.031-.094-.047-.063-.016-.109-.063h-.047l-.172-.078-.172-.047v-.016l-.047-.016-.109-.063-.063-.016-.094-.047h-.063l-.109-.063h-.016l-.031-.031h-.016l-.172-.063-.156-.063c-.875-.344-1.766-.688-2.656-1.016-.578-.203-1.172-.328-1.75-.328a5.052 5.052 0 0 0-4.719 3.313c-.967 2.614.361 5.52 2.97 6.473zM269.188 287.5a4.963 4.963 0 0 0 3.016-1c2.234-1.656 2.672-4.844 1-7.063a118.648 118.648 0 0 0-5.297-6.563h-.016l-.078-.094-.031-.047-.078-.078-.016-.031-.031-.016v-.016l-.031-.031-.031-.063h-.016l-.016-.031h-.031l-.031-.031v-.016l-.031-.047-.031-.031h-.016l-.031-.031-.016-.031-.031-.031v-.016l-.031-.031v-.016l-.031-.031-.047-.031-.016-.031-.016-.031h-.016l-.031-.031v-.016l-.032-.015-.031-.031v-.031h-.031l-.016-.031-.016-.016-.031-.047-.031-.016v-.016l-.016-.031h-.016l-.078-.078-.016-.016-.016-.031h-.016l-.063-.094h-.016l-.016-.031-.031-.016-.063-.078v-.031h-.031l-.016-.031-.078-.078v-.016l-.031-.031-.094-.094-.031-.031-.107-.125h-.016l-.094-.125-.016-.031-.234-.25a196.085 196.085 0 0 0-2.5-2.656 5.1 5.1 0 0 0-3.625-1.516c-1.25 0-2.531.484-3.5 1.422a5.022 5.022 0 0 0-.094 7.125 115.228 115.228 0 0 1 8.984 10.531c.986 1.313 2.517 2 4.049 2zM327.5 53.703a109.68 109.68 0 0 1 13.813-.891c1.25 0 2.516.031 3.75.094h.188c2.703 0 4.938-2.156 5.031-4.875a5.058 5.058 0 0 0-4.875-5.219l-.5-.016h-.063l-.063-.016H344.561c-.75 0-1.5-.031-2.25-.031H339.029l-.029.032H337.795l-.016.016h-.279l-.063.016H336.907l-.016.016h-.236l-.047.016H335.937l-.031.031H335.34l-.109.031h-.482l-.031.031h-.501l-.031.031h-.437l-.156.016h-.016l-.046.015h-.251l-.219.031c-2.313.156-4.594.375-6.844.656-2.75.344-4.719 2.875-4.375 5.641.344 2.547 2.5 4.422 5 4.422l.658-.047zM296.813 56.719c-.844-1.813-2.656-2.875-4.547-2.875-.734 0-1.469.156-2.172.5a96.951 96.951 0 0 0-5.063 2.578l-.313.172-.063.031-.094.031v.031h-.061l-.094.063-.047.031h-.016l-.031.031-.063.031-.031.031h-.031l-.031.031h-.016l-.047.031-.047.016-.016.016H284l-.016.031h-.047v.031h-.031l-.031.031h-.047l-.016.031-.047.031h-.016l-.031.016-.016.016h-.031l-.016.016-.047.016-.016.031h-.031l-.031.031h-.03l-.063.063h-.047l-.047.031-.094.063h-.016l-.031.031h-.016l-.092.063-.047.016h-.016l-.156.078a111.282 111.282 0 0 0-5.984 3.656c-2.328 1.5-2.984 4.625-1.484 6.953A5.066 5.066 0 0 0 279.656 71c.938 0 1.875-.25 2.734-.813 3.859-2.5 7.922-4.766 12.063-6.75 2.516-1.218 3.578-4.218 2.36-6.718zM230.734 130.219a5.037 5.037 0 0 0-4.906 3.875 120.461 120.461 0 0 0-2.516 14.922 5.072 5.072 0 0 0 4.5 5.547h.531c2.547 0 4.75-1.922 5-4.5.469-4.594 1.25-9.188 2.313-13.656.625-2.719-1.063-5.406-3.75-6.063l-1.172-.125zM248.938 86.938a408.474 408.474 0 0 0-2.422 3.094l-.078.125-.031.031-.094.125-.125.156-.094.141-.109.141-.203.281a109.588 109.588 0 0 0-3.844 5.531l-.094.156h-.016l-.016.031-.063.063v.062h-.016l-.016.031-.063.063-.013.031v.031l-.016.031h-.016l-.047.063-.016.031-.016.031h-.016l-.016.031v.031l-.031.031-.016.031h-.016v.031l-.031.031v.031l-.031.031h-.016l-.016.047v.018l-.031.031-.031.063h-.016l-.016.031v.016l-.031.047-.063.094c-.344.5-.656 1-.953 1.516-1.453 2.359-.734 5.484 1.641 6.922.844.531 1.75.75 2.656.75 1.688 0 3.344-.844 4.281-2.406a114.986 114.986 0 0 1 8-11.281 5.042 5.042 0 0 0-.766-7.094 5.018 5.018 0 0 0-3.172-1.125c-1.449-.001-2.902.655-3.902 1.874zM383.969 266.781a5.077 5.077 0 0 0 4.594 2.938c.703 0 1.422-.125 2.094-.438a118.561 118.561 0 0 0 8.188-4.156l.063-.031.094-.063.047-.016h.016l.094-.063.047-.016h.016l.031-.031.063-.031.031-.031h.031l.031-.031.063-.031.031-.031h.031l.031-.031.063-.031.031-.016h.031l.016-.016.016-.031h.031l.047-.031h.016l.031-.031.031-.031h.031l.063-.031.031-.031.031-.016h.016l.109-.078h.047c1.266-.75 2.531-1.5 3.781-2.281a5.036 5.036 0 0 0 1.609-6.938 5.05 5.05 0 0 0-4.281-2.375c-.922 0-1.844.25-2.672.781a113.93 113.93 0 0 1-12.172 6.531c-2.533 1.156-3.658 4.156-2.502 6.687zM339.234 279.969c.531.016 1.063.016 1.594.031h1.328l.031-.016H343.063l.031-.016H344.504l.406-.031h.11c3.141-.094 6.266-.313 9.344-.656a5.029 5.029 0 0 0 4.453-5.563 5.05 5.05 0 0 0-5-4.5l-.547.031c-3.953.438-7.969.656-11.953.656-.625 0-1.266 0-1.891-.016h-.078c-2.75 0-5 2.203-5.047 4.953-.051 2.783 2.168 5.064 4.933 5.127zM385.531 51.25l-.094-.031h-.016l-.047-.031-.172-.063-.172-.063c-.875-.344-1.766-.688-2.656-1.016a5.187 5.187 0 0 0-1.75-.328 5.052 5.052 0 0 0-4.719 3.313c-.969 2.609.375 5.5 2.969 6.469a106.162 106.162 0 0 1 12.656 5.625 5.097 5.097 0 0 0 2.313.563c1.828 0 3.594-.984 4.484-2.719 1.297-2.453.328-5.5-2.141-6.797a116.734 116.734 0 0 0-9.391-4.391l-.172-.063-.047-.031h-.016l-.094-.031-.063-.031-.094-.063h-.063l-.156-.078h-.016l-.156-.078h-.047l-.125-.063-.047-.016h-.016l-.094-.047-.058-.03zM63.375 123.656C76.594 104.094 93.125 87 112.063 73.031l11.75 24.938L190.86 27.75l-102.219-4.5 12.484 26.5C78.156 65.953 58.25 86.219 42.5 109.531 17.563 146.406 3 190.938 3 238.766h25.219c0-42.703 12.969-82.235 35.156-115.11zM483.781 285.813c-.016 41.438-12.203 79.906-33.188 112.172-13.578 20.859-30.875 39.047-50.875 53.766l-9.438-20.031-67.031 70.219 102.219 4.5-14.859-31.563c24.156-16.969 44.984-38.344 61.109-63.141C495.281 375.531 509 332.219 509 285.813h-25.219z"/>
  <path class="st0" d="M180 164.063c8.563.094 17 .75 25.266 1.938-.047-1.531-.109-3.078-.109-4.625 0-75.094 61.078-136.156 136.156-136.156s136.156 61.063 136.156 136.156c0 69.797-52.813 127.469-120.563 135.219a187.997 187.997 0 0 1 5.672 24.719c79.063-10.438 140.109-78.031 140.109-159.938C502.688 72.25 430.438 0 341.313 0S179.938 72.25 179.938 161.375c0 .906.062 1.781.062 2.688z"/>
  <path class="st0" d="M328.594 227.688v-13.75h11.219v13.75h12.375v-13.875c4.594-.234 9.5-.938 13.422-2.125 4.953-1.516 7.859-3.594 11.234-6.25 3.406-2.656 5.969-5.844 7.75-9.5 1.766-3.656 2.656-7.656 2.656-11.984 0-11.984-6.781-20.172-21.344-22.703 4.781-1.875 10.094-7.25 11.688-9.156s2.781-3.938 3.531-6.125a20.813 20.813 0 0 0 1.156-6.875c0-4.203-.781-7.953-2.281-11.281-1.531-3.344-4-6.094-7.188-8.563-5.672-4.406-13.938-6.5-20.625-7.063V97.844h-12.375V112l-11.219-.031V97.844h-12.375v14.094h-22.563v11.25c0 2.438-.156 3.906 2.375 4.406l.938.156c.406.063 5.375.25 6.469.375 1.719.25 2.938 1.141 2.938 3.438v61.078c0 1.891-.938 3.781-2.938 3.781-1.109 0-6.063.297-6.469.375l-.938.156c-2.531.516-2.375 1.969-2.375 4.422v12.563h22.563v13.75h12.376zm28.656-48.594c.594 1.344.875 2.875.875 4.594 0 1.625-.25 3.156-.781 4.594-.531 1.469-1.391 2.719-2.563 3.813-1.188 1.078-2.766 1.938-4.75 2.594-1.953.656-4.391.984-7.313.984h-13v-23h12.938c2.766 0 5.125.234 7.063.75 1.953.516 3.547 1.234 4.797 2.188 1.234.952 2.156 2.108 2.734 3.483zM329.266 130h10.047c5.297 0 9.188.875 11.688 2.594 2.469 1.75 3.719 4.656 3.719 8.75 0 3.938-1.375 6.813-4.125 8.625-2.781 1.813-6.828 2.719-12.156 2.719h-9.172V130z"/>
</svg>
